<svg xmlns="http://www.w3.org/2000/svg" viewBox="0 0 60 60"><title>60x60</title><rect width="60" height="60" rx="10" style="fill:#f5ad56"/><path d="M48.29,17.43v2.28a1.16,1.16,0,0,1-1.15,1.15H32.29V22a1.15,1.15,0,0,1-1.15,1.14H28.86A1.14,1.14,0,0,1,27.72,22V20.86H12.86a1.15,1.15,0,0,1-1.14-1.15V17.43a1.14,1.14,0,0,1,1.14-1.14H27.72V15.14A1.14,1.14,0,0,1,28.86,14h2.28a1.15,1.15,0,0,1,1.15,1.14v1.15H47.14A1.15,1.15,0,0,1,48.29,17.43Zm0,11.43v2.28a1.16,1.16,0,0,1-1.15,1.15H41.43v1.14a1.14,1.14,0,0,1-1.14,1.14H38a1.14,1.14,0,0,1-1.14-1.14V32.29h-24a1.15,1.15,0,0,1-1.14-1.15V28.86a1.15,1.15,0,0,1,1.14-1.15h24V26.57A1.14,1.14,0,0,1,38,25.43h2.29a1.14,1.14,0,0,1,1.14,1.14v1.14h5.71A1.16,1.16,0,0,1,48.29,28.86Zm0,11.43v2.28a1.15,1.15,0,0,1-1.15,1.14h-24v1.15A1.14,1.14,0,0,1,22,46H19.72a1.15,1.15,0,0,1-1.15-1.14V43.71H12.86a1.14,1.14,0,0,1-1.14-1.14V40.29a1.15,1.15,0,0,1,1.14-1.15h5.71V38a1.15,1.15,0,0,1,1.15-1.14H22A1.14,1.14,0,0,1,23.14,38v1.14h24A1.16,1.16,0,0,1,48.29,40.29Z" style="fill:#fff"/></svg>